HIERARCHY
ROOT Hips
{
	OFFSET 0.00000 0.00000 0.00000
	CHANNELS 6 Xposition Yposition Zposition Zrotation Yrotation Xrotation 
	JOINT LHipJoint
	{
		OFFSET 0 0 0
		CHANNELS 3 Zrotation Yrotation Xrotation
		JOINT LeftUpLeg
		{
			OFFSET 2.36090 -1.39315 1.24752
			CHANNELS 3 Zrotation Yrotation Xrotation
			JOINT LeftLeg
			{
				OFFSET 2.06810 -5.68207 0.00000
				CHANNELS 3 Zrotation Yrotation Xrotation
				JOINT LeftFoot
				{
					OFFSET 2.46631 -6.77613 0.00000
					CHANNELS 3 Zrotation Yrotation Xrotation
					JOINT LeftToeBase
					{
						OFFSET 0.26031 -0.71520 1.99545
						CHANNELS 3 Zrotation Yrotation Xrotation
						End Site
						{
							OFFSET 0.00000 -0.00000 1.05957
						}
					}
				}
			}
		}
	}
	JOINT RHipJoint
	{
		OFFSET 0 0 0
		CHANNELS 3 Zrotation Yrotation Xrotation
		JOINT RightUpLeg
		{
			OFFSET -2.25243 -1.39315 1.24752
			CHANNELS 3 Zrotation Yrotation Xrotation
			JOINT RightLeg
			{
				OFFSET -2.17343 -5.97145 0.00000
				CHANNELS 3 Zrotation Yrotation Xrotation
				JOINT RightFoot
				{
					OFFSET -2.52372 -6.93386 0.00000
					CHANNELS 3 Zrotation Yrotation Xrotation
					JOINT RightToeBase
					{
						OFFSET -0.22538 -0.61923 2.11447
						CHANNELS 3 Zrotation Yrotation Xrotation
						End Site
						{
							OFFSET -0.00000 -0.00000 1.10506
						}
					}
				}
			}
		}
	}
	JOINT LowerBack
	{
		OFFSET 0 0 0
		CHANNELS 3 Zrotation Yrotation Xrotation
		JOINT Spine
		{
			OFFSET 0.01594 2.13103 0.08007
			CHANNELS 3 Zrotation Yrotation Xrotation
			JOINT Spine1
			{
				OFFSET 0.01393 2.09723 0.18338
				CHANNELS 3 Zrotation Yrotation Xrotation
				JOINT Neck
				{
					OFFSET 0 0 0
					CHANNELS 3 Zrotation Yrotation Xrotation
					JOINT Neck1
					{
						OFFSET 0.05351 1.38915 0.32494
						CHANNELS 3 Zrotation Yrotation Xrotation
						JOINT Head
						{
							OFFSET 0.00711 1.45992 -0.21666
							CHANNELS 3 Zrotation Yrotation Xrotation
							End Site
							{
								OFFSET -0.00433 1.47702 -0.11056
							}
						}
					}
				}
				JOINT LeftShoulder
				{
					OFFSET 0 0 0
					CHANNELS 3 Zrotation Yrotation Xrotation
					JOINT LeftArm
					{
						OFFSET 2.87198 0.92249 0.11132
						CHANNELS 3 Zrotation Yrotation Xrotation
						JOINT LeftForeArm
						{
							OFFSET 5.52731 -0.00000 0.00000
							CHANNELS 3 Zrotation Yrotation Xrotation
							JOINT LeftHand
							{
								OFFSET 3.11059 -0.00000 0.00000
								CHANNELS 3 Zrotation Yrotation Xrotation
								JOINT LeftFingerBase
								{
									OFFSET 0 0 0
									CHANNELS 3 Zrotation Yrotation Xrotation
									JOINT LeftHandIndex1
									{
										OFFSET 0.41963 -0.00000 0.00000
										CHANNELS 3 Zrotation Yrotation Xrotation
										End Site
										{
											OFFSET 0.33831 -0.00000 0.00000
										}
									}
								}
								JOINT LThumb
								{
									OFFSET 0 0 0
									CHANNELS 3 Zrotation Yrotation Xrotation
									End Site
									{
										OFFSET 0.34348 -0.00000 0.34348
									}
								}
							}
						}
					}
				}
				JOINT RightShoulder
				{
					OFFSET 0 0 0
					CHANNELS 3 Zrotation Yrotation Xrotation
					JOINT RightArm
					{
						OFFSET -2.94710 0.68072 0.32187
						CHANNELS 3 Zrotation Yrotation Xrotation
						JOINT RightForeArm
						{
							OFFSET -5.25396 -0.00000 -0.00000
							CHANNELS 3 Zrotation Yrotation Xrotation
							JOINT RightHand
							{
								OFFSET -3.10567 -0.00000 0.00000
								CHANNELS 3 Zrotation Yrotation Xrotation
								JOINT RightFingerBase
								{
									OFFSET 0 0 0
									CHANNELS 3 Zrotation Yrotation Xrotation
									JOINT RightHandIndex1
									{
										OFFSET -0.49868 -0.00000 0.00000
										CHANNELS 3 Zrotation Yrotation Xrotation
										End Site
										{
											OFFSET -0.40204 -0.00000 0.00000
										}
									}
								}
								JOINT RThumb
								{
									OFFSET 0 0 0
									CHANNELS 3 Zrotation Yrotation Xrotation
									End Site
									{
										OFFSET -0.40818 -0.00000 0.40818
									}
								}
							}
						}
					}
				}
			}
		}
	}
}
MOTION
Frames: 11
Frame Time: .0083333
-0.4220 5.9267 26.7498 336.6440 -19.1741 52.5585 0.0000 0.0000 0.0000 152.7324 -73.8215 87.2874 38.7995 6.9518 160.4272 -1.6005 26.9481 7.1835 4.3852 -12.6561 -38.0944 0.0000 0.0000 0.0000 1.9765 -21.7393 -80.5825 -35.9926 -12.1703 143.6630 1.6835 30.2955 -11.0157 -0.3681 -3.8971 10.7873 -6.0988 7.3922 24.3573 0.7313 7.8249 5.3056 1.8013 3.7272 -8.4896 -4.8999 -11.1601 -25.3006 32.4396 -18.1205 2.2867 8.8652 -6.6962 9.1304 0.0000 0.0000 0.0000 -46.4316 -33.6977 6.9729 17.9751 -28.1253 -4.5375 -0.0000 0.0000 -46.7822 81.0343 -31.0465 -72.9904 -7.1250 0.0000 -0.0000 27.6860 -40.3222 -41.0132 0.0000 0.0000 0.0000 77.6216 46.4293 38.6962 -22.3911 33.4162 -6.8000 0.0000 0.0000 7.7093 -66.1067 2.0626 -4.6447 7.1250 -0.0000 -0.0000 -28.5002 -24.5512 -16.0874
-0.5037 5.9526 26.7444 337.1610 -18.8026 52.8824 0.0000 0.0000 0.0000 148.9079 -75.9039 92.7441 38.8060 6.9335 160.4816 -1.2501 24.9830 7.7974 4.1439 -12.3495 -36.9798 0.0000 0.0000 0.0000 2.6745 -22.3855 -80.8757 -35.9965 -12.1650 143.6816 1.7404 30.4907 -10.8421 -0.4194 -4.1566 11.5176 -6.3099 7.2392 24.1731 0.7400 7.5995 5.2806 2.0185 3.6307 -8.4307 -4.9230 -11.1366 -25.3756 32.3687 -18.0266 2.1541 8.8579 -6.6657 9.0700 -0.0000 -0.0000 0.0000 -46.0032 -33.6808 6.2923 17.9048 -28.0351 -4.5044 -0.0000 0.0000 -46.6971 80.2762 -30.7884 -71.4908 -7.1250 0.0000 -0.0000 27.2182 -39.1450 -40.2842 -0.0000 -0.0000 0.0000 77.8584 46.4564 39.2563 -22.8331 33.9058 -7.0450 0.0000 0.0000 7.6342 -66.3049 2.2966 -5.2172 7.1250 -0.0000 -0.0000 -28.4819 -24.0008 -16.5019
-0.5861 5.9773 26.7374 337.6800 -18.4474 53.2665 0.0000 0.0000 0.0000 142.6681 -77.7949 100.5819 38.8129 6.9141 160.5388 -0.9228 22.9610 8.4579 3.8988 -12.0245 -35.8187 0.0000 0.0000 0.0000 3.3821 -23.0170 -81.2868 -36.0048 -12.1540 143.7210 1.8059 30.7214 -10.6536 -0.4677 -4.3866 12.1668 -6.5631 7.0784 23.9115 0.7802 7.3650 5.2620 2.3031 3.5311 -8.3313 -5.0040 -11.1092 -25.4654 32.2804 -17.9107 2.0361 8.8597 -6.6236 9.0154 0.0000 -0.0000 0.0000 -45.6269 -33.6571 5.5261 17.8166 -27.9216 -4.4630 -0.0000 0.0000 -46.5770 79.4938 -30.5145 -69.9360 -7.1250 0.0000 -0.0000 26.7511 -37.9183 -39.5353 0.0000 -0.0000 0.0000 78.0456 46.5161 39.8689 -23.2834 34.3973 -7.2978 0.0000 0.0000 7.5547 -66.5072 2.5797 -5.9119 7.1250 -0.0000 -0.0000 -28.4373 -23.3361 -16.9824
-0.6689 6.0011 26.7291 338.1990 -18.1113 53.7041 0.0000 0.0000 0.0000 133.1934 -79.3454 111.6219 38.8198 6.8948 160.5960 -0.6199 20.8834 9.1618 3.6507 -11.6804 -34.6107 0.0000 0.0000 0.0000 4.1027 -23.5947 -81.8073 -36.0170 -12.1377 143.7790 1.8779 30.9681 -10.4429 -0.5123 -4.5880 12.7370 -6.8535 6.9119 23.5854 0.8472 7.1241 5.2490 2.6444 3.4291 -8.1966 -5.1321 -11.0784 -25.5718 32.1779 -17.7775 1.9325 8.8688 -6.5716 8.9674 0.0000 0.0000 0.0000 -45.2938 -33.6307 4.6777 17.7095 -27.7836 -4.4130 -0.0000 0.0000 -46.4218 78.6945 -30.2290 -68.3424 -7.1250 0.0000 -0.0000 26.2890 -36.6566 -38.7723 0.0000 0.0000 0.0000 78.1953 46.6079 40.5223 -23.7398 34.8879 -7.5572 0.0000 0.0000 7.4795 -66.7143 2.9058 -6.7179 7.1250 -0.0000 -0.0000 -28.3712 -22.5675 -17.5210
-0.7520 6.0245 26.7195 338.7140 -17.7961 54.1794 0.0000 0.0000 0.0000 120.1185 -80.3488 126.2414 38.8255 6.8786 160.6437 -0.3428 18.7498 9.9046 3.4004 -11.3166 -33.3552 0.0000 0.0000 0.0000 4.8444 -23.6621 -82.4003 -36.0313 -12.1187 143.8468 1.9308 31.0095 -10.1040 -0.5525 -4.7617 13.2302 -7.1687 6.7432 23.2209 0.9302 6.8812 5.2394 3.0195 3.3258 -8.0390 -5.2838 -11.0444 -25.6920 32.0639 -17.6339 1.8402 8.8805 -6.5131 8.9237 0.0000 -0.0000 0.0000 -44.9847 -33.6075 3.7618 17.5831 -27.6200 -4.3542 -0.0000 0.0000 -46.2344 77.8842 -29.9357 -66.7237 -7.1250 0.0000 -0.0000 25.8340 -35.3697 -37.9984 0.0000 -0.0000 0.0000 78.3274 46.7245 41.1972 -24.2009 35.3760 -7.8225 0.0000 0.0000 7.4183 -66.9279 3.2774 -7.6442 7.1250 -0.0000 -0.0000 -28.2838 -21.6858 -18.1213
-0.8354 6.0481 26.7093 339.2240 -17.5024 54.6678 0.0000 0.0000 0.0000 104.5679 -80.5988 143.3303 38.8285 6.8703 160.6685 -0.0931 16.5609 10.6771 3.1489 -10.9322 -32.0516 0.0000 0.0000 0.0000 5.5782 -23.6965 -83.0378 -36.0455 -12.0996 143.9146 1.9871 31.0668 -9.7578 -0.5880 -4.9096 13.6511 -7.4925 6.5765 22.8550 1.0159 6.6410 5.2315 3.3999 3.2228 -7.8760 -5.4297 -11.0069 -25.8192 31.9416 -17.4874 1.7537 8.8890 -6.4524 8.8807 -0.0000 -0.0000 0.0000 -44.6765 -33.5942 2.7991 17.4368 -27.4300 -4.2866 -0.0000 0.0000 -46.0176 77.0648 -29.6346 -65.0854 -7.1250 0.0000 -0.0000 25.3878 -34.0632 -37.2164 -0.0000 -0.0000 0.0000 78.4652 46.8541 41.8708 -24.6658 35.8605 -8.0933 0.0000 0.0000 7.3796 -67.1495 3.6944 -8.6936 7.1250 -0.0000 -0.0000 -28.1776 -20.6887 -18.7822
-0.9189 6.0727 26.6991 339.7290 -17.2288 55.1408 0.0000 0.0000 0.0000 89.2487 -80.0318 160.1988 38.8271 6.8741 160.6570 0.1268 14.3214 11.4689 2.8972 -10.5267 -30.6997 0.0000 0.0000 0.0000 6.2928 -23.7024 -83.6726 -36.0568 -12.0844 143.9687 2.0454 31.1357 -9.4096 -0.6186 -5.0336 14.0043 -7.8092 6.4159 22.5279 1.0928 6.4071 5.2247 3.7602 3.1212 -7.7265 -5.5450 -10.9653 -25.9449 31.8140 -17.3438 1.6676 8.8895 -6.3930 8.8344 0.0000 -0.0000 0.0000 -44.3488 -33.5954 1.8086 17.2699 -27.2122 -4.2100 -0.0000 0.0000 -45.7711 76.2341 -29.3220 -63.4224 -7.1250 0.0000 -0.0000 24.9501 -32.7314 -36.4260 0.0000 -0.0000 0.0000 78.6294 46.9853 42.5255 -25.1333 36.3399 -8.3687 0.0000 0.0000 7.3693 -67.3812 4.1608 -9.8785 7.1250 -0.0000 -0.0000 -28.0538 -19.5658 -19.5068
-1.0022 6.0989 26.6896 340.2310 -16.9726 55.5699 0.0000 0.0000 0.0000 76.4218 -78.7881 174.6008 38.8198 6.8948 160.5960 0.3151 12.0405 12.2699 2.6465 -10.0996 -29.2997 0.0000 0.0000 0.0000 6.9768 -23.7070 -84.2572 -36.0621 -12.0772 143.9942 2.1058 31.2229 -9.0678 -0.6444 -5.1353 14.2950 -8.1072 6.2646 22.2775 1.1550 6.1813 5.2204 4.0846 3.0220 -7.6076 -5.6157 -10.9190 -26.0614 31.6842 -17.2065 1.5782 8.8801 -6.3373 8.7821 0.0000 -0.0000 0.0000 -43.9904 -33.6140 0.8015 17.0812 -26.9647 -4.1241 -0.0000 0.0000 -45.4892 75.3848 -28.9891 -61.7174 -7.1250 0.0000 -0.0000 24.5188 -31.3574 -35.6223 0.0000 -0.0000 0.0000 78.8327 47.1094 43.1520 -25.6013 36.8123 -8.6477 0.0000 0.0000 7.3894 -67.6244 4.6707 -11.1886 7.1250 -0.0000 -0.0000 -27.9180 -18.3263 -20.2873
-1.0854 6.1273 26.6817 340.7330 -16.7298 55.9302 0.0000 0.0000 0.0000 66.5750 -77.0956 -173.9404 38.8049 6.9367 160.4720 0.4700 9.7314 13.0716 2.3986 -9.6512 -27.8543 0.0000 0.0000 0.0000 7.6189 -23.6920 -84.7472 -36.0593 -12.0811 143.9805 2.1662 31.3139 -8.7285 -0.6655 -5.2170 14.5286 -8.3809 6.1242 22.1337 1.2033 5.9633 5.2216 4.3697 2.9252 -7.5318 -5.6421 -10.8680 -26.1637 31.5552 -17.0758 1.4843 8.8618 -6.2859 8.7236 -0.0000 0.0000 0.0000 -43.6009 -33.6499 -0.2215 16.8689 -26.6846 -4.0283 -0.0000 0.0000 -45.1594 74.5073 -28.6235 -59.9457 -7.1250 0.0000 -0.0000 24.0921 -29.9171 -34.7994 -0.0000 0.0000 0.0000 79.0786 47.2236 43.7513 -26.0666 37.2744 -8.9280 0.0000 0.0000 7.4386 -67.8804 5.2158 -12.6071 7.1250 -0.0000 -0.0000 -27.7771 -16.9872 -21.1118
-1.1683 6.1582 26.6758 341.2360 -16.4964 56.2016 0.0000 0.0000 0.0000 59.1403 -75.1501 -164.8534 38.7814 7.0021 160.2784 0.5904 7.4109 13.8657 2.1551 -9.1819 -26.3660 0.0000 0.0000 0.0000 8.2099 -23.6781 -85.1059 -36.0461 -12.0988 143.9176 2.2275 31.4151 -8.3959 -0.6820 -5.2800 14.7090 -8.6296 5.9959 22.1188 1.2435 5.7522 5.2327 4.6215 2.8309 -7.5071 -5.6343 -10.8129 -26.2502 31.4299 -16.9501 1.3875 8.8380 -6.2381 8.6601 -0.0000 0.0000 0.0000 -43.1887 -33.7016 -1.2682 16.6308 -26.3685 -3.9220 -0.0000 0.0000 -44.7648 73.5910 -28.2106 -58.0783 -7.1250 0.0000 -0.0000 23.6688 -28.3831 -33.9500 -0.0000 0.0000 0.0000 79.3629 47.3298 44.3315 -26.5244 37.7219 -9.2067 0.0000 0.0000 7.5142 -68.1519 5.7903 -14.1237 7.1250 -0.0000 -0.0000 -27.6370 -15.5573 -21.9746
-1.2509 6.1919 26.6728 341.7390 -16.2686 56.3684 0.0000 0.0000 0.0000 53.3817 -73.0860 -157.3999 38.7484 7.0928 160.0094 0.6759 5.0971 14.6434 1.9179 -8.6930 -24.8397 0.0000 0.0000 0.0000 8.7428 -23.6737 -85.3021 -36.0205 -12.1331 143.7957 2.2898 31.5280 -8.0712 -0.6941 -5.3257 14.8400 -8.8553 5.8805 22.2487 1.2832 5.5468 5.2578 4.8500 2.7388 -7.5383 -5.6066 -10.7542 -26.3216 31.3100 -16.8271 1.2908 8.8123 -6.1923 8.5940 -0.0000 -0.0000 0.0000 -42.7653 -33.7674 -2.3508 16.3651 -26.0131 -3.8047 -0.0000 0.0000 -44.2864 72.6261 -27.7339 -56.0858 -7.1250 0.0000 -0.0000 23.2480 -26.7250 -33.0660 -0.0000 -0.0000 0.0000 79.6795 47.4339 44.9046 -26.9681 38.1488 -9.4794 0.0000 0.0000 7.6126 -68.4466 6.4024 -15.7652 7.1250 -0.0000 -0.0000 -27.4998 -14.0139 -22.8883
